<?xml version="1.0" encoding="UTF-8"?>
<svg width="1341px" height="541px" viewBox="0 0 1341 541" version="1.1" xmlns="http://www.w3.org/2000/svg" xmlns:xlink="http://www.w3.org/1999/xlink">
    <title>REI</title>
    <g id="Page-1" stroke="none" stroke-width="1" fill="none" fill-rule="evenodd">
        <rect id="Rectangle-Copy-2" fill="#000000" x="0" y="0.5" width="1341" height="540"></rect>
        <path d="M568.332031,407 L568.332031,288.054688 L638.644531,288.054688 L700.949219,407 L725.363281,407 L725.363281,404.460938 L660.519531,282.585938 C668.722656,279.200521 676.242188,275.098958 683.078125,270.28125 C689.914062,265.463542 695.80599,259.897135 700.753906,253.582031 C705.701823,247.266927 709.575521,240.203125 712.375,232.390625 C715.174479,224.578125 716.574219,215.919271 716.574219,206.414062 C716.574219,193.132812 714.197917,181.348958 709.445312,171.0625 C704.692708,160.776042 698.182292,152.084635 689.914062,144.988281 C681.645833,137.891927 671.977865,132.455729 660.910156,128.679688 C649.842448,124.903646 638.058594,122.885417 625.558594,122.625 L625.558594,122.625 L545.285156,122.625 L545.285156,407 L568.332031,407 Z M630.246094,268.328125 L568.332031,268.328125 L568.332031,142.546875 L625.363281,142.546875 C634.86849,142.807292 643.755208,144.369792 652.023438,147.234375 C660.291667,150.098958 667.453125,154.233073 673.507812,159.636719 C679.5625,165.040365 684.347656,171.648438 687.863281,179.460938 C691.378906,187.273438 693.136719,196.192708 693.136719,206.21875 C693.136719,215.203125 691.541667,223.471354 688.351562,231.023438 C685.161458,238.575521 680.734375,245.053385 675.070312,250.457031 C669.40625,255.860677 662.733073,260.125 655.050781,263.25 C647.36849,266.375 639.10026,268.067708 630.246094,268.328125 L630.246094,268.328125 Z M956.511719,407 L956.511719,386.6875 L811.980469,386.6875 L811.980469,270.671875 L937.371094,270.671875 L937.371094,250.359375 L811.980469,250.359375 L811.980469,143.132812 L955.730469,143.132812 L955.730469,122.625 L788.738281,122.625 L788.738281,407 L956.511719,407 Z M1195.86328,407 L1195.86328,386.296875 L1124.57422,386.296875 L1124.57422,143.71875 L1195.86328,143.71875 L1195.86328,122.625 L1031.21484,122.625 L1031.21484,143.71875 L1100.35547,143.71875 L1100.35547,386.296875 L1031.21484,386.296875 L1031.21484,407 L1195.86328,407 Z" id="REI" fill="#FFFFFF" fill-rule="nonzero"></path>
        <path d="M277.273644,469.275983 C297.068624,469.275983 314.654343,465.917906 330.030802,459.201752 C345.40726,452.485598 358.397716,442.632293 369.00217,429.641837 C379.606623,416.651381 387.736705,400.656329 393.392413,381.656683 C399.048122,362.657036 401.875977,340.873721 401.875977,316.306736 L401.875977,225.903767 C401.875977,201.336782 399.048122,179.553466 393.392413,160.55382 C387.736705,141.554173 379.562438,125.514937 368.869614,112.43611 C358.17679,99.3572838 345.097963,89.4156083 329.633135,82.6110837 C314.168306,75.8065592 296.538401,72.4042969 276.743421,72.4042969 C257.125181,72.4042969 239.583647,75.8065592 224.118819,82.6110837 C208.65399,89.4156083 195.575164,99.3572838 184.882339,112.43611 C174.189515,125.514937 166.015248,141.554173 160.35954,160.55382 C154.703831,179.553466 151.875977,201.336782 151.875977,225.903767 L151.875977,316.306736 C151.875977,340.873721 154.748016,362.657036 160.492095,381.656683 C166.236175,400.656329 174.498811,416.651381 185.280006,429.641837 C196.061201,442.632293 209.184213,452.485598 224.649041,459.201752 C240.11387,465.917906 257.655404,469.275983 277.273644,469.275983 Z M201.186687,306.497616 L201.186687,215.034201 C201.186687,181.630172 207.328433,156.223668 219.611926,138.814689 C231.895418,121.405711 250.93925,112.701222 276.743421,112.701222 C299.542997,112.701222 316.99616,119.37319 329.102912,132.717128 C341.209663,146.061066 348.676966,165.54675 351.504821,191.17418 C318.100791,216.80161 293.047769,236.022183 276.345754,248.835898 C259.643739,261.649613 234.590717,280.870186 201.186687,306.497616 Z M277.273644,429.509281 C255.181031,429.509281 230.045526,416.568956 225.576931,412.062833 C221.108336,407.556711 209.556357,397.868508 205.417075,373.239513 L352.565266,200.16158 L352.565266,326.646078 C352.565266,359.873367 346.51189,385.324057 334.405139,402.998146 C322.298387,420.672236 303.254556,429.509281 277.273644,429.509281 Z" id="0-copy-3" fill="#FFFFFF" fill-rule="nonzero"></path>
    </g>
</svg>
